<mxfile host="app.diagrams.net" modified="2022-03-29T08:07:39.648Z" agent="5.0 (Macintosh; Intel Mac OS X 10_15_7) AppleWebKit/537.36 (KHTML, like Gecko) Chrome/99.0.4844.84 Safari/537.36" etag="U9AqWjFwXxKMWIzqhk8b" version="17.2.4" type="github">
  <diagram id="MtTlIDRIiLrTSXyTIh4B" name="第 1 页">
    <mxGraphModel dx="950" dy="1153" grid="1" gridSize="10" guides="1" tooltips="1" connect="1" arrows="1" fold="1" page="1" pageScale="1" pageWidth="827" pageHeight="1169" math="0" shadow="0">
      <root>
        <mxCell id="0" />
        <mxCell id="1" parent="0" />
        <mxCell id="i-CrZrziM_Z40opMjOIr-9" style="rounded=0;orthogonalLoop=1;jettySize=auto;html=1;exitX=1;exitY=0.5;exitDx=0;exitDy=0;entryX=0;entryY=0.5;entryDx=0;entryDy=0;" edge="1" parent="1" source="i-CrZrziM_Z40opMjOIr-1" target="i-CrZrziM_Z40opMjOIr-3">
          <mxGeometry relative="1" as="geometry" />
        </mxCell>
        <mxCell id="i-CrZrziM_Z40opMjOIr-10" style="edgeStyle=none;rounded=0;orthogonalLoop=1;jettySize=auto;html=1;exitX=1;exitY=0.5;exitDx=0;exitDy=0;entryX=0;entryY=0.5;entryDx=0;entryDy=0;" edge="1" parent="1" source="i-CrZrziM_Z40opMjOIr-1" target="i-CrZrziM_Z40opMjOIr-2">
          <mxGeometry relative="1" as="geometry" />
        </mxCell>
        <mxCell id="i-CrZrziM_Z40opMjOIr-11" style="edgeStyle=none;rounded=0;orthogonalLoop=1;jettySize=auto;html=1;exitX=1;exitY=0.5;exitDx=0;exitDy=0;entryX=0;entryY=0.75;entryDx=0;entryDy=0;" edge="1" parent="1" source="i-CrZrziM_Z40opMjOIr-1" target="i-CrZrziM_Z40opMjOIr-4">
          <mxGeometry relative="1" as="geometry" />
        </mxCell>
        <mxCell id="i-CrZrziM_Z40opMjOIr-12" style="edgeStyle=none;rounded=0;orthogonalLoop=1;jettySize=auto;html=1;exitX=1;exitY=0.5;exitDx=0;exitDy=0;entryX=0;entryY=0.75;entryDx=0;entryDy=0;" edge="1" parent="1" source="i-CrZrziM_Z40opMjOIr-1" target="i-CrZrziM_Z40opMjOIr-5">
          <mxGeometry relative="1" as="geometry" />
        </mxCell>
        <mxCell id="i-CrZrziM_Z40opMjOIr-1" value="登录" style="ellipse;whiteSpace=wrap;html=1;" vertex="1" parent="1">
          <mxGeometry x="40" y="210" width="120" height="80" as="geometry" />
        </mxCell>
        <mxCell id="i-CrZrziM_Z40opMjOIr-14" style="edgeStyle=none;rounded=0;orthogonalLoop=1;jettySize=auto;html=1;exitX=1;exitY=0.5;exitDx=0;exitDy=0;entryX=0;entryY=0.5;entryDx=0;entryDy=0;entryPerimeter=0;" edge="1" parent="1" source="i-CrZrziM_Z40opMjOIr-2" target="i-CrZrziM_Z40opMjOIr-8">
          <mxGeometry relative="1" as="geometry">
            <mxPoint x="470" y="250" as="targetPoint" />
          </mxGeometry>
        </mxCell>
        <mxCell id="i-CrZrziM_Z40opMjOIr-2" value="sso登录" style="rounded=0;whiteSpace=wrap;html=1;" vertex="1" parent="1">
          <mxGeometry x="260" y="220" width="120" height="60" as="geometry" />
        </mxCell>
        <mxCell id="i-CrZrziM_Z40opMjOIr-13" style="edgeStyle=none;rounded=0;orthogonalLoop=1;jettySize=auto;html=1;exitX=1;exitY=0.5;exitDx=0;exitDy=0;entryX=0;entryY=0.5;entryDx=0;entryDy=0;entryPerimeter=0;" edge="1" parent="1" source="i-CrZrziM_Z40opMjOIr-3" target="i-CrZrziM_Z40opMjOIr-8">
          <mxGeometry relative="1" as="geometry" />
        </mxCell>
        <mxCell id="i-CrZrziM_Z40opMjOIr-3" value="系统账户登录" style="rounded=0;whiteSpace=wrap;html=1;" vertex="1" parent="1">
          <mxGeometry x="260" y="130" width="120" height="60" as="geometry" />
        </mxCell>
        <mxCell id="i-CrZrziM_Z40opMjOIr-15" style="edgeStyle=none;rounded=0;orthogonalLoop=1;jettySize=auto;html=1;exitX=1;exitY=0.5;exitDx=0;exitDy=0;entryX=0;entryY=0.5;entryDx=0;entryDy=0;entryPerimeter=0;" edge="1" parent="1" source="i-CrZrziM_Z40opMjOIr-4" target="i-CrZrziM_Z40opMjOIr-8">
          <mxGeometry relative="1" as="geometry">
            <mxPoint x="470" y="250" as="targetPoint" />
          </mxGeometry>
        </mxCell>
        <mxCell id="i-CrZrziM_Z40opMjOIr-4" value="微信扫码登录" style="rounded=0;whiteSpace=wrap;html=1;" vertex="1" parent="1">
          <mxGeometry x="260" y="310" width="120" height="60" as="geometry" />
        </mxCell>
        <mxCell id="i-CrZrziM_Z40opMjOIr-16" style="edgeStyle=none;rounded=0;orthogonalLoop=1;jettySize=auto;html=1;exitX=1;exitY=0.5;exitDx=0;exitDy=0;entryX=0;entryY=0.5;entryDx=0;entryDy=0;entryPerimeter=0;" edge="1" parent="1" source="i-CrZrziM_Z40opMjOIr-5" target="i-CrZrziM_Z40opMjOIr-8">
          <mxGeometry relative="1" as="geometry">
            <mxPoint x="470" y="250" as="targetPoint" />
          </mxGeometry>
        </mxCell>
        <mxCell id="i-CrZrziM_Z40opMjOIr-5" value="人脸识别登录" style="rounded=0;whiteSpace=wrap;html=1;" vertex="1" parent="1">
          <mxGeometry x="260" y="400" width="120" height="60" as="geometry" />
        </mxCell>
        <mxCell id="i-CrZrziM_Z40opMjOIr-19" style="edgeStyle=orthogonalEdgeStyle;rounded=0;orthogonalLoop=1;jettySize=auto;html=1;exitX=0.5;exitY=0;exitDx=0;exitDy=0;exitPerimeter=0;entryX=0.5;entryY=0;entryDx=0;entryDy=0;" edge="1" parent="1" source="i-CrZrziM_Z40opMjOIr-8" target="i-CrZrziM_Z40opMjOIr-1">
          <mxGeometry relative="1" as="geometry">
            <mxPoint x="640" y="50" as="targetPoint" />
            <Array as="points">
              <mxPoint x="550" y="70" />
              <mxPoint x="100" y="70" />
            </Array>
          </mxGeometry>
        </mxCell>
        <mxCell id="i-CrZrziM_Z40opMjOIr-20" value="否" style="edgeLabel;html=1;align=center;verticalAlign=middle;resizable=0;points=[];" vertex="1" connectable="0" parent="i-CrZrziM_Z40opMjOIr-19">
          <mxGeometry x="-0.0359" y="4" relative="1" as="geometry">
            <mxPoint as="offset" />
          </mxGeometry>
        </mxCell>
        <mxCell id="i-CrZrziM_Z40opMjOIr-7" value="登录成功" style="strokeWidth=2;html=1;shape=mxgraph.flowchart.terminator;whiteSpace=wrap;" vertex="1" parent="1">
          <mxGeometry x="640" y="220" width="100" height="60" as="geometry" />
        </mxCell>
        <mxCell id="i-CrZrziM_Z40opMjOIr-17" style="edgeStyle=none;rounded=0;orthogonalLoop=1;jettySize=auto;html=1;exitX=1;exitY=0.5;exitDx=0;exitDy=0;exitPerimeter=0;entryX=0;entryY=0.5;entryDx=0;entryDy=0;entryPerimeter=0;" edge="1" parent="1" source="i-CrZrziM_Z40opMjOIr-8" target="i-CrZrziM_Z40opMjOIr-7">
          <mxGeometry relative="1" as="geometry" />
        </mxCell>
        <mxCell id="i-CrZrziM_Z40opMjOIr-18" value="是" style="edgeLabel;html=1;align=center;verticalAlign=middle;resizable=0;points=[];" vertex="1" connectable="0" parent="i-CrZrziM_Z40opMjOIr-17">
          <mxGeometry x="-0.2" y="3" relative="1" as="geometry">
            <mxPoint as="offset" />
          </mxGeometry>
        </mxCell>
        <mxCell id="i-CrZrziM_Z40opMjOIr-8" value="验证通过" style="strokeWidth=2;html=1;shape=mxgraph.flowchart.decision;whiteSpace=wrap;" vertex="1" parent="1">
          <mxGeometry x="500" y="200" width="100" height="100" as="geometry" />
        </mxCell>
      </root>
    </mxGraphModel>
  </diagram>
</mxfile>
